<svg width="788.0" height="1332.8000000000002" viewBox="0 0 788.0 1332.8000000000002" xmlns="http://www.w3.org/2000/svg">
<style>/* font and background color specifications */
svg {
    font-family: SFMono-Regular,Consolas,Liberation Mono,Menlo,monospace;
    font-size: 14px;
    font-kerning: normal;
    text-rendering: optimizeLegibility;
    fill: #24292e;
}

/* default key styling */
rect {
    fill: #f6f8fa;
    stroke: #c9cccf;
    stroke-width: 1;
}

/* color accent for combo boxes */
rect.combo {
    fill: #cdf;
}

/* color accent for held keys */
rect.held, rect.combo.held {
    fill: #fdd;
}

/* color accent for ghost (optional) keys */
rect.ghost, rect.combo.ghost {
    fill: #ddd;
}

text {
    text-anchor: middle;
    dominant-baseline: middle;
}

/* styling for layer labels */
text.label {
    font-weight: bold;
    text-anchor: start;
    stroke: white;
    stroke-width: 2;
    paint-order: stroke;
}

/* styling for combo tap, and key hold/shifted label text */
text.combo, text.hold, text.shifted {
    font-size: 11px;
}

text.hold {
    text-anchor: middle;
    dominant-baseline: auto;
}

text.shifted {
    text-anchor: middle;
    dominant-baseline: hanging;
}

/* styling for hold/shifted label text in combo box */
text.combo.hold, text.combo.shifted {
    font-size: 8px;
}

/* styling for combo dendrons */
path {
    stroke-width: 1;
    stroke: gray;
    fill: none;
}
</style>
<text x="30.0" y="28.0" class="label">BASE:</text>
<rect rx="6.0" ry="6.0" x="32.0" y="74.80000000000001" width="52.0" height="52.0" class=""/>
<text x="58.0" y="100.80000000000001" class="tap">Q</text>
<rect rx="6.0" ry="6.0" x="88.0" y="63.599999999999994" width="52.0" height="52.0" class=""/>
<text x="114.0" y="89.6" class="tap">W</text>
<rect rx="6.0" ry="6.0" x="144.0" y="58.0" width="52.0" height="52.0" class=""/>
<text x="170.0" y="84.0" class="tap">E</text>
<rect rx="6.0" ry="6.0" x="200.0" y="63.599999999999994" width="52.0" height="52.0" class=""/>
<text x="226.0" y="89.6" class="tap">R</text>
<rect rx="6.0" ry="6.0" x="256.0" y="69.19999999999999" width="52.0" height="52.0" class=""/>
<text x="282.0" y="95.19999999999999" class="tap">T</text>
<rect rx="6.0" ry="6.0" x="480.0" y="69.19999999999999" width="52.0" height="52.0" class=""/>
<text x="506.0" y="95.19999999999999" class="tap">Y</text>
<rect rx="6.0" ry="6.0" x="536.0" y="63.599999999999994" width="52.0" height="52.0" class=""/>
<text x="562.0" y="89.6" class="tap">U</text>
<rect rx="6.0" ry="6.0" x="592.0" y="58.0" width="52.0" height="52.0" class=""/>
<text x="618.0" y="84.0" class="tap">I</text>
<rect rx="6.0" ry="6.0" x="648.0" y="63.599999999999994" width="52.0" height="52.0" class=""/>
<text x="674.0" y="89.6" class="tap">O</text>
<rect rx="6.0" ry="6.0" x="704.0" y="74.80000000000001" width="52.0" height="52.0" class=""/>
<text x="730.0" y="100.80000000000001" class="tap">P</text>
<rect rx="6.0" ry="6.0" x="32.0" y="130.8" width="52.0" height="52.0" class=""/>
<text x="58.0" y="156.8" class="tap">A</text>
<rect rx="6.0" ry="6.0" x="88.0" y="119.60000000000002" width="52.0" height="52.0" class=""/>
<text x="114.0" y="145.60000000000002" class="tap">S</text>
<rect rx="6.0" ry="6.0" x="144.0" y="114.0" width="52.0" height="52.0" class=""/>
<text x="170.0" y="140.0" class="tap">D</text>
<rect rx="6.0" ry="6.0" x="200.0" y="119.60000000000002" width="52.0" height="52.0" class=""/>
<text x="226.0" y="145.60000000000002" class="tap">F</text>
<rect rx="6.0" ry="6.0" x="256.0" y="125.19999999999999" width="52.0" height="52.0" class=""/>
<text x="282.0" y="151.2" class="tap">G</text>
<rect rx="6.0" ry="6.0" x="480.0" y="125.19999999999999" width="52.0" height="52.0" class=""/>
<text x="506.0" y="151.2" class="tap">H</text>
<rect rx="6.0" ry="6.0" x="536.0" y="119.60000000000002" width="52.0" height="52.0" class=""/>
<text x="562.0" y="145.60000000000002" class="tap">J</text>
<rect rx="6.0" ry="6.0" x="592.0" y="114.0" width="52.0" height="52.0" class=""/>
<text x="618.0" y="140.0" class="tap">K</text>
<rect rx="6.0" ry="6.0" x="648.0" y="119.60000000000002" width="52.0" height="52.0" class=""/>
<text x="674.0" y="145.60000000000002" class="tap">L</text>
<rect rx="6.0" ry="6.0" x="704.0" y="130.8" width="52.0" height="52.0" class=""/>
<text x="730.0" y="156.8" class="tap">&amp;semi_apos</text>
<rect rx="6.0" ry="6.0" x="32.0" y="186.79999999999998" width="52.0" height="52.0" class=""/>
<text x="58.0" y="212.79999999999998" class="tap">Z</text>
<text x="58.0" y="236.79999999999998" class="hold">LCTRL</text>
<rect rx="6.0" ry="6.0" x="88.0" y="175.6" width="52.0" height="52.0" class=""/>
<text x="114.0" y="201.6" class="tap">X</text>
<text x="114.0" y="225.6" class="hold">LGUI</text>
<rect rx="6.0" ry="6.0" x="144.0" y="170.0" width="52.0" height="52.0" class=""/>
<text x="170.0" y="196.0" class="tap">C</text>
<text x="170.0" y="220.0" class="hold">LALT</text>
<rect rx="6.0" ry="6.0" x="200.0" y="175.6" width="52.0" height="52.0" class=""/>
<text x="226.0" y="201.6" class="tap">V</text>
<rect rx="6.0" ry="6.0" x="256.0" y="181.20000000000002" width="52.0" height="52.0" class=""/>
<text x="282.0" y="207.20000000000002" class="tap">B</text>
<rect rx="6.0" ry="6.0" x="480.0" y="181.20000000000002" width="52.0" height="52.0" class=""/>
<text x="506.0" y="207.20000000000002" class="tap">N</text>
<rect rx="6.0" ry="6.0" x="536.0" y="175.6" width="52.0" height="52.0" class=""/>
<text x="562.0" y="201.6" class="tap">M</text>
<rect rx="6.0" ry="6.0" x="592.0" y="170.0" width="52.0" height="52.0" class=""/>
<text x="618.0" y="196.0" class="tap">,</text>
<text x="618.0" y="220.0" class="hold">RALT</text>
<rect rx="6.0" ry="6.0" x="648.0" y="175.6" width="52.0" height="52.0" class=""/>
<text x="674.0" y="201.6" class="tap">.</text>
<text x="674.0" y="225.6" class="hold">RGUI</text>
<rect rx="6.0" ry="6.0" x="704.0" y="186.79999999999998" width="52.0" height="52.0" class=""/>
<text x="730.0" y="212.79999999999998" class="tap">/</text>
<text x="730.0" y="236.79999999999998" class="hold">LCTRL</text>
<rect rx="6.0" ry="6.0" x="200.0" y="265.20000000000005" width="52.0" height="52.0" class=""/>
<text x="226.0" y="291.20000000000005" class="tap">LGUI</text>
<rect rx="6.0" ry="6.0" x="256.0" y="265.20000000000005" width="52.0" height="52.0" class=""/>
<text x="282.0" y="291.20000000000005" class="tap">LSHFT</text>
<rect rx="6.0" ry="6.0" x="312.0" y="237.20000000000005" width="52.0" height="80.0" class=""/>
<text x="338.0" y="277.20000000000005" class="tap">RET</text>
<text x="338.0" y="315.20000000000005" class="hold">LOWER</text>
<rect rx="6.0" ry="6.0" x="424.0" y="237.20000000000005" width="52.0" height="80.0" class=""/>
<text x="450.0" y="277.20000000000005" class="tap">SPACE</text>
<text x="450.0" y="315.20000000000005" class="hold">RAISE</text>
<rect rx="6.0" ry="6.0" x="480.0" y="265.20000000000005" width="52.0" height="52.0" class=""/>
<text x="506.0" y="291.20000000000005" class="tap">RSHFT</text>
<rect rx="6.0" ry="6.0" x="536.0" y="265.20000000000005" width="52.0" height="52.0" class=""/>
<text x="562.0" y="291.20000000000005" class="tap">RGUI</text>
<rect rx="6.0" ry="6.0" x="72.0" y="82.2" width="28.0" height="26.0" class="combo"/>
<text x="86.0" y="95.2" class="combo">TAB</text>
<rect rx="6.0" ry="6.0" x="72.0" y="138.2" width="28.0" height="26.0" class="combo"/>
<text x="86.0" y="151.2" class="combo">ESC</text>
<rect rx="6.0" ry="6.0" x="688.0" y="82.2" width="28.0" height="26.0" class="combo"/>
<text x="702.0" y="95.2" class="combo">BSPC</text>
<rect rx="6.0" ry="6.0" x="688.0" y="138.2" width="28.0" height="26.0" class="combo"/>
<text x="702.0" y="151.2" class="combo">.</text>
<rect rx="6.0" ry="6.0" x="688.0" y="194.2" width="28.0" height="26.0" class="combo"/>
<text x="702.0" y="207.2" class="combo">`</text>
<text x="30.0" y="347.20000000000005" class="label">LOWER:</text>
<rect rx="6.0" ry="6.0" x="32.0" y="394.00000000000006" width="52.0" height="52.0" class=""/>
<text x="58.0" y="420.00000000000006" class="tap">1</text>
<rect rx="6.0" ry="6.0" x="88.0" y="382.80000000000007" width="52.0" height="52.0" class=""/>
<text x="114.0" y="408.80000000000007" class="tap">2</text>
<rect rx="6.0" ry="6.0" x="144.0" y="377.20000000000005" width="52.0" height="52.0" class=""/>
<text x="170.0" y="403.20000000000005" class="tap">3</text>
<rect rx="6.0" ry="6.0" x="200.0" y="382.80000000000007" width="52.0" height="52.0" class=""/>
<text x="226.0" y="408.80000000000007" class="tap">4</text>
<rect rx="6.0" ry="6.0" x="256.0" y="388.40000000000003" width="52.0" height="52.0" class=""/>
<text x="282.0" y="414.40000000000003" class="tap">5</text>
<rect rx="6.0" ry="6.0" x="480.0" y="388.40000000000003" width="52.0" height="52.0" class=""/>
<text x="506.0" y="414.40000000000003" class="tap">6</text>
<rect rx="6.0" ry="6.0" x="536.0" y="382.80000000000007" width="52.0" height="52.0" class=""/>
<text x="562.0" y="408.80000000000007" class="tap">7</text>
<rect rx="6.0" ry="6.0" x="592.0" y="377.20000000000005" width="52.0" height="52.0" class=""/>
<text x="618.0" y="403.20000000000005" class="tap">8</text>
<rect rx="6.0" ry="6.0" x="648.0" y="382.80000000000007" width="52.0" height="52.0" class=""/>
<text x="674.0" y="408.80000000000007" class="tap">9</text>
<rect rx="6.0" ry="6.0" x="704.0" y="394.00000000000006" width="52.0" height="52.0" class=""/>
<text x="730.0" y="420.00000000000006" class="tap">0</text>
<rect rx="6.0" ry="6.0" x="32.0" y="450.00000000000006" width="52.0" height="52.0" class=""/>
<text x="58.0" y="476.00000000000006" class="tap">ESC</text>
<rect rx="6.0" ry="6.0" x="88.0" y="438.80000000000007" width="52.0" height="52.0" class=""/>
<text x="114.0" y="464.80000000000007" class="tap">
<tspan x="114.0" dy="-0.6em">VOL</tspan><tspan x="114.0" dy="1.2em">DN</tspan></text>
<rect rx="6.0" ry="6.0" x="144.0" y="433.20000000000005" width="52.0" height="52.0" class=""/>
<text x="170.0" y="459.20000000000005" class="tap">
<tspan x="170.0" dy="-0.6em">VOL</tspan><tspan x="170.0" dy="1.2em">UP</tspan></text>
<rect rx="6.0" ry="6.0" x="200.0" y="438.80000000000007" width="52.0" height="52.0" class=""/>
<text x="226.0" y="464.80000000000007" class="tap">NEXT</text>
<rect rx="6.0" ry="6.0" x="256.0" y="444.40000000000003" width="52.0" height="52.0" class=""/>
<text x="282.0" y="470.40000000000003" class="tap">PLAY</text>
<rect rx="6.0" ry="6.0" x="480.0" y="444.40000000000003" width="52.0" height="52.0" class=""/>
<text x="506.0" y="470.40000000000003" class="tap">LEFT</text>
<rect rx="6.0" ry="6.0" x="536.0" y="438.80000000000007" width="52.0" height="52.0" class=""/>
<text x="562.0" y="464.80000000000007" class="tap">DOWN</text>
<rect rx="6.0" ry="6.0" x="592.0" y="433.20000000000005" width="52.0" height="52.0" class=""/>
<text x="618.0" y="459.20000000000005" class="tap">UP</text>
<rect rx="6.0" ry="6.0" x="648.0" y="438.80000000000007" width="52.0" height="52.0" class=""/>
<text x="674.0" y="464.80000000000007" class="tap">RIGHT</text>
<rect rx="6.0" ry="6.0" x="704.0" y="450.00000000000006" width="52.0" height="52.0" class=""/>
<text x="730.0" y="476.00000000000006" class="tap">&amp;emoji</text>
<rect rx="6.0" ry="6.0" x="32.0" y="506.0" width="52.0" height="52.0" class=""/>
<text x="58.0" y="532.0" class="tap">CAPS</text>
<rect rx="6.0" ry="6.0" x="88.0" y="494.80000000000007" width="52.0" height="52.0" class=""/>
<rect rx="6.0" ry="6.0" x="144.0" y="489.20000000000005" width="52.0" height="52.0" class=""/>
<rect rx="6.0" ry="6.0" x="200.0" y="494.80000000000007" width="52.0" height="52.0" class=""/>
<rect rx="6.0" ry="6.0" x="256.0" y="500.4000000000001" width="52.0" height="52.0" class=""/>
<text x="282.0" y="526.4000000000001" class="tap">MUTE</text>
<rect rx="6.0" ry="6.0" x="480.0" y="500.4000000000001" width="52.0" height="52.0" class=""/>
<text x="506.0" y="526.4000000000001" class="tap">UNDO</text>
<rect rx="6.0" ry="6.0" x="536.0" y="494.80000000000007" width="52.0" height="52.0" class=""/>
<text x="562.0" y="520.8000000000001" class="tap">CUT</text>
<rect rx="6.0" ry="6.0" x="592.0" y="489.20000000000005" width="52.0" height="52.0" class=""/>
<text x="618.0" y="515.2" class="tap">COPY</text>
<rect rx="6.0" ry="6.0" x="648.0" y="494.80000000000007" width="52.0" height="52.0" class=""/>
<text x="674.0" y="520.8000000000001" class="tap">PASTE</text>
<rect rx="6.0" ry="6.0" x="704.0" y="506.0" width="52.0" height="52.0" class=""/>
<text x="730.0" y="532.0" class="tap">INS</text>
<rect rx="6.0" ry="6.0" x="200.0" y="584.4000000000001" width="52.0" height="52.0" class=""/>
<rect rx="6.0" ry="6.0" x="256.0" y="584.4000000000001" width="52.0" height="52.0" class=""/>
<rect rx="6.0" ry="6.0" x="312.0" y="556.4000000000001" width="52.0" height="80.0" class=""/>
<rect rx="6.0" ry="6.0" x="424.0" y="556.4000000000001" width="52.0" height="80.0" class=""/>
<rect rx="6.0" ry="6.0" x="480.0" y="584.4000000000001" width="52.0" height="52.0" class=""/>
<rect rx="6.0" ry="6.0" x="536.0" y="584.4000000000001" width="52.0" height="52.0" class=""/>
<rect rx="6.0" ry="6.0" x="72.0" y="457.40000000000003" width="28.0" height="26.0" class="combo"/>
<text x="86.0" y="470.40000000000003" class="combo">ESC</text>
<rect rx="6.0" ry="6.0" x="688.0" y="401.40000000000003" width="28.0" height="26.0" class="combo"/>
<text x="702.0" y="414.40000000000003" class="combo">BSPC</text>
<text x="30.0" y="666.4000000000001" class="label">RAISE:</text>
<rect rx="6.0" ry="6.0" x="32.0" y="713.2" width="52.0" height="52.0" class=""/>
<text x="58.0" y="739.2" class="tap">!</text>
<rect rx="6.0" ry="6.0" x="88.0" y="702.0000000000001" width="52.0" height="52.0" class=""/>
<text x="114.0" y="728.0000000000001" class="tap">@</text>
<rect rx="6.0" ry="6.0" x="144.0" y="696.4000000000001" width="52.0" height="52.0" class=""/>
<text x="170.0" y="722.4000000000001" class="tap">#</text>
<rect rx="6.0" ry="6.0" x="200.0" y="702.0000000000001" width="52.0" height="52.0" class=""/>
<text x="226.0" y="728.0000000000001" class="tap">$</text>
<rect rx="6.0" ry="6.0" x="256.0" y="707.6000000000001" width="52.0" height="52.0" class=""/>
<text x="282.0" y="733.6000000000001" class="tap">%</text>
<rect rx="6.0" ry="6.0" x="480.0" y="707.6000000000001" width="52.0" height="52.0" class=""/>
<text x="506.0" y="733.6000000000001" class="tap">^</text>
<rect rx="6.0" ry="6.0" x="536.0" y="702.0000000000001" width="52.0" height="52.0" class=""/>
<text x="562.0" y="728.0000000000001" class="tap">&amp;</text>
<rect rx="6.0" ry="6.0" x="592.0" y="696.4000000000001" width="52.0" height="52.0" class=""/>
<text x="618.0" y="722.4000000000001" class="tap">*</text>
<rect rx="6.0" ry="6.0" x="648.0" y="702.0000000000001" width="52.0" height="52.0" class=""/>
<text x="674.0" y="728.0000000000001" class="tap">(</text>
<rect rx="6.0" ry="6.0" x="704.0" y="713.2" width="52.0" height="52.0" class=""/>
<text x="730.0" y="739.2" class="tap">)</text>
<rect rx="6.0" ry="6.0" x="32.0" y="769.2" width="52.0" height="52.0" class=""/>
<text x="58.0" y="795.2" class="tap">_</text>
<rect rx="6.0" ry="6.0" x="88.0" y="758.0000000000001" width="52.0" height="52.0" class=""/>
<text x="114.0" y="784.0000000000001" class="tap">+</text>
<rect rx="6.0" ry="6.0" x="144.0" y="752.4000000000001" width="52.0" height="52.0" class=""/>
<text x="170.0" y="778.4000000000001" class="tap">=</text>
<rect rx="6.0" ry="6.0" x="200.0" y="758.0000000000001" width="52.0" height="52.0" class=""/>
<text x="226.0" y="784.0000000000001" class="tap">|</text>
<rect rx="6.0" ry="6.0" x="256.0" y="763.6000000000001" width="52.0" height="52.0" class=""/>
<text x="282.0" y="789.6000000000001" class="tap">-</text>
<rect rx="6.0" ry="6.0" x="480.0" y="763.6000000000001" width="52.0" height="52.0" class=""/>
<text x="506.0" y="789.6000000000001" class="tap">HOME</text>
<rect rx="6.0" ry="6.0" x="536.0" y="758.0000000000001" width="52.0" height="52.0" class=""/>
<text x="562.0" y="784.0000000000001" class="tap">
<tspan x="562.0" dy="-0.6em">PG</tspan><tspan x="562.0" dy="1.2em">DN</tspan></text>
<rect rx="6.0" ry="6.0" x="592.0" y="752.4000000000001" width="52.0" height="52.0" class=""/>
<text x="618.0" y="778.4000000000001" class="tap">
<tspan x="618.0" dy="-0.6em">PG</tspan><tspan x="618.0" dy="1.2em">UP</tspan></text>
<rect rx="6.0" ry="6.0" x="648.0" y="758.0000000000001" width="52.0" height="52.0" class=""/>
<text x="674.0" y="784.0000000000001" class="tap">END</text>
<rect rx="6.0" ry="6.0" x="704.0" y="769.2" width="52.0" height="52.0" class=""/>
<text x="730.0" y="795.2" class="tap">&amp;bs_del</text>
<rect rx="6.0" ry="6.0" x="32.0" y="825.2" width="52.0" height="52.0" class=""/>
<text x="58.0" y="851.2" class="tap">\</text>
<rect rx="6.0" ry="6.0" x="88.0" y="814.0000000000001" width="52.0" height="52.0" class=""/>
<text x="114.0" y="840.0000000000001" class="tap">&lt;</text>
<rect rx="6.0" ry="6.0" x="144.0" y="808.4000000000001" width="52.0" height="52.0" class=""/>
<text x="170.0" y="834.4000000000001" class="tap">{</text>
<rect rx="6.0" ry="6.0" x="200.0" y="814.0000000000001" width="52.0" height="52.0" class=""/>
<text x="226.0" y="840.0000000000001" class="tap">(</text>
<rect rx="6.0" ry="6.0" x="256.0" y="819.6000000000001" width="52.0" height="52.0" class=""/>
<text x="282.0" y="845.6000000000001" class="tap">[</text>
<rect rx="6.0" ry="6.0" x="480.0" y="819.6000000000001" width="52.0" height="52.0" class=""/>
<text x="506.0" y="845.6000000000001" class="tap">]</text>
<rect rx="6.0" ry="6.0" x="536.0" y="814.0000000000001" width="52.0" height="52.0" class=""/>
<text x="562.0" y="840.0000000000001" class="tap">)</text>
<rect rx="6.0" ry="6.0" x="592.0" y="808.4000000000001" width="52.0" height="52.0" class=""/>
<text x="618.0" y="834.4000000000001" class="tap">}</text>
<rect rx="6.0" ry="6.0" x="648.0" y="814.0000000000001" width="52.0" height="52.0" class=""/>
<text x="674.0" y="840.0000000000001" class="tap">&gt;</text>
<rect rx="6.0" ry="6.0" x="704.0" y="825.2" width="52.0" height="52.0" class=""/>
<text x="730.0" y="851.2" class="tap">/</text>
<rect rx="6.0" ry="6.0" x="200.0" y="903.6000000000001" width="52.0" height="52.0" class=""/>
<rect rx="6.0" ry="6.0" x="256.0" y="903.6000000000001" width="52.0" height="52.0" class=""/>
<rect rx="6.0" ry="6.0" x="312.0" y="875.6000000000001" width="52.0" height="80.0" class=""/>
<rect rx="6.0" ry="6.0" x="424.0" y="875.6000000000001" width="52.0" height="80.0" class=""/>
<rect rx="6.0" ry="6.0" x="480.0" y="903.6000000000001" width="52.0" height="52.0" class=""/>
<rect rx="6.0" ry="6.0" x="536.0" y="903.6000000000001" width="52.0" height="52.0" class=""/>
<text x="562.0" y="929.6000000000001" class="tap">PSCRN</text>
<rect rx="6.0" ry="6.0" x="72.0" y="776.6000000000001" width="28.0" height="26.0" class="combo"/>
<text x="86.0" y="789.6000000000001" class="combo">ESC</text>
<rect rx="6.0" ry="6.0" x="688.0" y="720.6000000000001" width="28.0" height="26.0" class="combo"/>
<text x="702.0" y="733.6000000000001" class="combo">BSPC</text>
<text x="30.0" y="985.6000000000001" class="label">ADJUST:</text>
<rect rx="6.0" ry="6.0" x="32.0" y="1032.4" width="52.0" height="52.0" class=""/>
<text x="58.0" y="1058.4" class="tap">F1</text>
<rect rx="6.0" ry="6.0" x="88.0" y="1021.2" width="52.0" height="52.0" class=""/>
<text x="114.0" y="1047.2" class="tap">F2</text>
<rect rx="6.0" ry="6.0" x="144.0" y="1015.6000000000001" width="52.0" height="52.0" class=""/>
<text x="170.0" y="1041.6000000000001" class="tap">F3</text>
<rect rx="6.0" ry="6.0" x="200.0" y="1021.2" width="52.0" height="52.0" class=""/>
<text x="226.0" y="1047.2" class="tap">F4</text>
<rect rx="6.0" ry="6.0" x="256.0" y="1026.8000000000002" width="52.0" height="52.0" class=""/>
<text x="282.0" y="1052.8000000000002" class="tap">F5</text>
<rect rx="6.0" ry="6.0" x="480.0" y="1026.8000000000002" width="52.0" height="52.0" class=""/>
<text x="506.0" y="1052.8000000000002" class="tap">F6</text>
<rect rx="6.0" ry="6.0" x="536.0" y="1021.2" width="52.0" height="52.0" class=""/>
<text x="562.0" y="1047.2" class="tap">F7</text>
<rect rx="6.0" ry="6.0" x="592.0" y="1015.6000000000001" width="52.0" height="52.0" class=""/>
<text x="618.0" y="1041.6000000000001" class="tap">F8</text>
<rect rx="6.0" ry="6.0" x="648.0" y="1021.2" width="52.0" height="52.0" class=""/>
<text x="674.0" y="1047.2" class="tap">F9</text>
<rect rx="6.0" ry="6.0" x="704.0" y="1032.4" width="52.0" height="52.0" class=""/>
<text x="730.0" y="1058.4" class="tap">F10</text>
<rect rx="6.0" ry="6.0" x="32.0" y="1088.4" width="52.0" height="52.0" class=""/>
<rect rx="6.0" ry="6.0" x="88.0" y="1077.2" width="52.0" height="52.0" class=""/>
<rect rx="6.0" ry="6.0" x="144.0" y="1071.6000000000001" width="52.0" height="52.0" class=""/>
<rect rx="6.0" ry="6.0" x="200.0" y="1077.2" width="52.0" height="52.0" class=""/>
<rect rx="6.0" ry="6.0" x="256.0" y="1082.8000000000002" width="52.0" height="52.0" class=""/>
<rect rx="6.0" ry="6.0" x="480.0" y="1082.8000000000002" width="52.0" height="52.0" class=""/>
<rect rx="6.0" ry="6.0" x="536.0" y="1077.2" width="52.0" height="52.0" class=""/>
<rect rx="6.0" ry="6.0" x="592.0" y="1071.6000000000001" width="52.0" height="52.0" class=""/>
<rect rx="6.0" ry="6.0" x="648.0" y="1077.2" width="52.0" height="52.0" class=""/>
<rect rx="6.0" ry="6.0" x="704.0" y="1088.4" width="52.0" height="52.0" class=""/>
<rect rx="6.0" ry="6.0" x="32.0" y="1144.4" width="52.0" height="52.0" class=""/>
<text x="58.0" y="1170.4" class="tap">&amp;reset</text>
<rect rx="6.0" ry="6.0" x="88.0" y="1133.2" width="52.0" height="52.0" class=""/>
<text x="114.0" y="1159.2" class="tap">
<tspan x="114.0" dy="-0.6em">BT</tspan><tspan x="114.0" dy="1.2em">CLR</tspan></text>
<rect rx="6.0" ry="6.0" x="144.0" y="1127.6000000000001" width="52.0" height="52.0" class=""/>
<text x="170.0" y="1153.6000000000001" class="tap">
<tspan x="170.0" dy="-0.6em">OUT</tspan><tspan x="170.0" dy="1.2em">TOG</tspan></text>
<rect rx="6.0" ry="6.0" x="200.0" y="1133.2" width="52.0" height="52.0" class=""/>
<rect rx="6.0" ry="6.0" x="256.0" y="1138.8000000000002" width="52.0" height="52.0" class=""/>
<rect rx="6.0" ry="6.0" x="480.0" y="1138.8000000000002" width="52.0" height="52.0" class=""/>
<rect rx="6.0" ry="6.0" x="536.0" y="1133.2" width="52.0" height="52.0" class=""/>
<rect rx="6.0" ry="6.0" x="592.0" y="1127.6000000000001" width="52.0" height="52.0" class=""/>
<rect rx="6.0" ry="6.0" x="648.0" y="1133.2" width="52.0" height="52.0" class=""/>
<rect rx="6.0" ry="6.0" x="704.0" y="1144.4" width="52.0" height="52.0" class=""/>
<text x="730.0" y="1170.4" class="tap">&amp;reset</text>
<rect rx="6.0" ry="6.0" x="200.0" y="1222.8000000000002" width="52.0" height="52.0" class=""/>
<text x="226.0" y="1248.8000000000002" class="tap">&amp;bootloader</text>
<rect rx="6.0" ry="6.0" x="256.0" y="1222.8000000000002" width="52.0" height="52.0" class=""/>
<rect rx="6.0" ry="6.0" x="312.0" y="1194.8000000000002" width="52.0" height="80.0" class=""/>
<rect rx="6.0" ry="6.0" x="424.0" y="1194.8000000000002" width="52.0" height="80.0" class=""/>
<rect rx="6.0" ry="6.0" x="480.0" y="1222.8000000000002" width="52.0" height="52.0" class=""/>
<rect rx="6.0" ry="6.0" x="536.0" y="1222.8000000000002" width="52.0" height="52.0" class=""/>
<text x="562.0" y="1248.8000000000002" class="tap">&amp;bootloader</text>
<rect rx="6.0" ry="6.0" x="632.0" y="1031.4" width="28.0" height="26.0" class="combo"/>
<text x="646.0" y="1044.4" class="combo">F11</text>
<rect rx="6.0" ry="6.0" x="688.0" y="1039.8000000000002" width="28.0" height="26.0" class="combo"/>
<text x="702.0" y="1052.8000000000002" class="combo">F12</text>
</svg>
